<svg xmlns="http://www.w3.org/2000/svg" width="250" height="250" viewBox="0 0 250 250">
<!-- SVG created with Arrow, by QuiverAI (https://quiver.ai) -->
  <rect width="250" height="245.9" fill="#fff" fill-opacity=".01"/>
  <path d="m134.2 40.47h-91.26c-14.94 0-27.4 13.47-27.4 26.91v58.42c0 14.15 12.08 26.28 27.4 26.28h32.89l2.86-13.01h-35.6c-8.39 0-14.12-6.54-14.12-13.66v-58.7c0-7.83 6.43-13.46 13.97-13.46h90.6c7.94 0 12.53 6.88 12.33 13.23v15.41h12.87v-14.98c0-14.19-11.72-26.44-24.54-26.44z" fill="#000"/>
  <path d="m115 210.5v-0.02 0.02z" fill="#000"/>
  <path d="m214.9 127.2c3.12-18.17 4.32-40.18 0.25-50.97-1.14-3.06-4.79-4.74-8.35-2.36-12.44 8.18-22.47 16.57-30.8 22.99-7.53-3.13-14.54-4.74-22.28-4.62-7.69-0.12-14.7 1.49-22.23 4.62-8.33-6.42-18.36-14.81-30.8-22.99-3.56-2.38-7.21-0.7-8.35 2.36-4.07 10.79-2.49 31.91 2.2 53.52-8.72 14.48-11.21 26.79-11.21 40.18 0 9.39 3.02 19.87 7.81 28.29h-17.14c-9.03 0-13.97-8.13-13.97-16.32v-19.83h-12.87v20.23c0 14.65 11.2 28.73 26.84 28.73h31.84c6.46-0.11 8.09-7.44 3.06-11.12-8.95-7.32-12.89-19.27-12.89-29.69 0-12 4.15-23.4 10.42-33.81 1.67-2.78 1.26-5.77 0.51-9.63-2.49-12.24-3.38-23.08-3.09-36.45 9.69 6.39 17.17 14.65 23.1 19.34 2.43 1.82 5.05 1.49 6.93 0.46 7.18-3.41 13.74-4.69 19.84-4.69s12.66 1.28 19.84 4.69c1.88 1.03 4.5 1.36 6.93-0.46 5.93-4.69 13.41-12.95 24.43-19.62 0.72 8.05-0.34 22.09-2.26 37.15-0.4 2.78-0.2 4.89 1.48 7.27 7.91 10.78 11.68 22.27 11.68 34.93 0 12.04-5.56 25.45-12.81 31.51-3.88 3.41-2.86 9.12 1.76 10.61 2.26 0.5 4.41-0.32 5.89-1.74 11.57-9.79 18.58-25.49 18.58-40.29 0-14.69-5.29-29.29-14.34-42.29z" fill="#000"/>
  <path d="m130 172.7h13.32v21.45c0 2.57 2.38 3.33 3.78 3.33h15.37c1.97 0 3.21-1.74 3.21-3.16v-21.62h13.04c2.75 0 4-2.65 2.19-4.8l-25.05-31.28c-1.32-1.82-3.61-1.52-4.72 0.24l-23.44 31.88c-1.68 2.06-0.61 3.96 2.3 3.96z" fill="#000"/>
</svg>